# xmcd
#
# Track frame offsets: 
#        150
#        18799
#        37239
#        57358
#        82061
#        107144
#        132456
#        156484
#        172054
#        198180
#        221687
#        242505
#        266999
#        285679
#
# Disc length: 4074 seconds
#
# Revision: 0
# Processed by: cddbd v1.5.2PL0 Copyright (c) Steve Scherf et al.
# Submitted via: ExactAudioCopy v1.0b4
#
DISCID=d70fe80e
DTITLE=The Beat Daddys - Live at the Quincy Blues Fest 2007
DYEAR=2007
DGENRE=Electric Blues
TTITLE0=She's All That
TTITLE1=Train in the Distance
TTITLE2=Beautician Blues
TTITLE3=Beverly Hillbillies
TTITLE4=Pale White Circle
TTITLE5=Beg Borrow Steal
TTITLE6=Evil Memory
TTITLE7=Sloppy Drunk
TTITLE8=Hey Joe
TTITLE9=Little Wing
TTITLE10=Bad News
TTITLE11=I'll Always Love You
TTITLE12=Big Thighs
TTITLE13=Where Is She
EXTD=
EXTT0=
EXTT1=
EXTT2=
EXTT3=
EXTT4=
EXTT5=
EXTT6=
EXTT7=
EXTT8=
EXTT9=
EXTT10=
EXTT11=
EXTT12=
EXTT13=
PLAYORDER=
